<!-- Mano del ecosistema SIATC — MODO OSCURO. Para enlaces y botones.
     Variante clara (luminancia 153).
     viewBox recortado al dibujo: el original dejaba lienzo vacio y lo habria
     hecho verse mas chico. 25x32 porque el navegador descarta
     cualquier cursor mayor a 128x128. -->
<svg xmlns="http://www.w3.org/2000/svg" width="25" height="32" viewBox="30 17 172 223" style="fill-rule:evenodd">
<path d="M 75 192 C 42.992 146.663, 32.8183 131.525, 31.7414 129.111 C 28.3039 121.406, 31.5552 112.846, 39.3534 109.071 C 44.6083 106.527, 48.2667 106.484, 53.5922 108.902 C 56.8766 110.394, 59.3439 113.104, 66.0922 122.63 C 68.8948 126.587, 71.6974 130.543, 74.5 134.5 C 74.6667 116.5, 74.8333 98.5, 75 80.5 C 75.1667 62.5, 75.3333 44.5, 75.5 26.5 C 76.2763 25.4116, 77.0526 24.3233, 77.8288 23.2349 C 80.9318 18.8845, 85.4711 16.6519, 91.2539 16.6319 C 96.6226 16.6133, 100.139 18.6836, 103.75 23.9898 C 105.967 27.2471, 106 27.764, 106 59.1019 C 106 69.7039, 106 80.3059, 106 90.9079 C 118.25 91.0066, 130.5 91.1053, 142.75 91.204 C 178.695 91.4935, 179.612 91.5506, 184.607 93.8118 C 190.584 96.5172, 195.888 101.686, 199.165 108 C 201.48 112.461, 201.502 112.832, 201.75 151.25 C 201.833 164.167, 201.917 177.083, 202 190 C 201.806 190.333, 201.611 190.667, 201.417 191 C 201.038 191.65, 178.806 192, 75 192 Z " fill="rgb(148,159,177)" />
<path d="M 75 208 C 75 202.667, 75 197.333, 75 192 C 178.806 192, 201.038 191.65, 201.417 191 C 201.611 190.667, 201.806 190.333, 202 190 C 202 196, 202 202, 202 208 C 159.667 208, 117.333 208, 75 208 Z " fill="rgb(184,191,204)" />
<path d="M 202 208 C 202 218.667, 202 229.333, 202 240 C 180.833 240, 159.667 240, 138.5 240 C 117.333 240, 96.1667 240, 75 240 C 75 234.667, 75 229.333, 75 224 C 75 218.667, 75 213.333, 75 208 C 117.333 208, 159.667 208, 202 208 Z " fill="rgb(76,95,128)" />
</svg>
